<svg xmlns="http://www.w3.org/2000/svg" width="20" height="20" viewBox="0 0 16.866 18"><path id="Categories" d="M14.2,18H2.663a1.333,1.333,0,0,1-1.332-1.331V8.68A1.334,1.334,0,0,1,0,7.348V5.089A1.335,1.335,0,0,1,.981,3.811a1.737,1.737,0,0,1-.2-.8,1.891,1.891,0,0,1,.887-1.535l.113-.081.005,0A2.886,2.886,0,0,1,3.569.677,6.858,6.858,0,0,1,6.4,1.534l-.3-.528A.668.668,0,0,1,6.347.1.684.684,0,0,1,6.676.008a.67.67,0,0,1,.581.337l1.26,2.218L10.133.3a.66.66,0,0,1,.558-.3c.018,0,.036,0,.054,0a.666.666,0,0,1,.471,1.075l-.165.231A6.9,6.9,0,0,1,13.337.69c1.916,0,2.774,1.17,2.774,2.33a1.73,1.73,0,0,1-.2.8A1.34,1.34,0,0,1,16.866,5.1V7.348A1.334,1.334,0,0,1,15.534,8.68v7.989A1.333,1.333,0,0,1,14.2,18ZM8.9,8.68v7.989h5.325V8.68Zm-6.214,0v7.989H7.567V8.68ZM8.9,5.129V7.348h6.657V5.129Zm-7.546,0V7.348H7.567V5.129ZM3.573,2.022c-1.087,0-1.438.688-1.438,1.021,0,.263.357.754,1.216.754H7.225A5.034,5.034,0,0,0,3.573,2.022Zm9.764-.013A5.038,5.038,0,0,0,9.684,3.784h3.88a1.615,1.615,0,0,0,.918-.32.6.6,0,0,0,.3-.444C14.78,2.744,14.521,2.022,13.337,2.009Z" fill="#9C9C9C"></path></svg>